#!OML:ASF F:\VICON\USERDATA\INSTALL\rory3\rory3.ASF
:FULLY-SPECIFIED
:DEGREES
28
root -0.30206507699060614 17.59177453034735 -0.7424506144860583 4.885664223651859 0.9690655076893686 0.2663796397534064
lfemur 4.606041497846926 0.1263930917374116 -26.231774121941257
ltibia 36.81313902726948
lfoot -9.777797830923086 -1.6096154526300799
ltoes -27.524880030486344
rfemur -52.19694837355654 -3.500915320527874 22.604766051391564
rtibia 98.2605466752315
rfoot 0.4867529936312094 -3.7352012168327775
rtoes 1.8634577825423158
lowerback 16.59050469790093 -0.7202220476635248 -3.7835437614935685
upperback -1.0398281695658569 -1.5622225572231931 1.2939763958130683
thorax -10.389043937531692 -0.4717733034475572 4.700695008723186
lowerneck -21.48471892971674 -2.793589651965099 -1.5343496536471113
upperneck 12.807003327855083 -3.946946979183473 3.4937913150000646
head 7.54533172573 -1.5885597746613884 0.9887538304765706
lclavicle -2.1922434960409963e-15 1.4470525222732994e-15
lhumerus -31.71195170098563 -19.46055322502763 97.24042562911283
lradius 121.28340315478465
lwrist 38.151482452709836
lhand -25.114394778032263 1.3528225361577093
lfingers 7.12502
lthumb 1.4009568739971112 31.290175127639063
rclavicle -2.1922434960409963e-15 1.4470525222732994e-15
rhumerus -61.781872611361884 8.083734543424539 -100.60537216213834
rradius 107.88578580028702
rwrist -12.607392364778898
rhand -15.369491708274658 40.025044532982726
rfingers 7.12502
rthumb 10.807466206958017 9.891849826961575
29
root -0.2789112037174057 17.86075022802259 1.5188017837253405 5.229986535730827 -0.4706794217373774 -0.28277092694975536
lfemur 9.053688931159678 0.6775721266567387 -25.720564548183575
ltibia 32.73618058666025
lfoot -1.460148637373744 -4.9004503820813525
ltoes -28.963713611515054
rfemur -52.24341866168635 -1.2706360786024309 23.455699873118228
rtibia 88.20267399678495
rfoot 0.053376617906701895 -2.064396384572963
rtoes -1.578557327851787
lowerback 16.078912434766362 -0.7977972740462724 -3.344470204837334
upperback -1.1888673766995568 -1.5402489132553883 1.7579200217159205
thorax -10.203579820993852 -0.4734362981578032 4.986079202441578
lowerneck -21.870712813188042 -2.5300436012709477 -1.6123348267126545
upperneck 13.364779868586567 -3.5224625451346094 3.223701487925179
head 7.719565800203807 -1.4078017834292316 0.9290681951229236
lclavicle -1.75572412033968e-15 1.7631701270193204e-15
lhumerus -31.19218707709898 -18.920263055346012 96.58725045257376
lradius 123.77634335533824
lwrist 38.697106128055395
lhand -24.822956415905683 1.3016405715804855
lfingers 7.12502
lthumb 1.6824496492482726 31.23861217984965
rclavicle -1.75572412033968e-15 1.7631701270193204e-15
rhumerus -63.356254852598894 7.839875497394859 -99.73549982745752
rradius 109.06371451395432
rwrist -12.335452981760673
rhand -15.194188769315593 40.04344413597459
rfingers 7.12502
rthumb 10.976692863645619 9.825582363832616
30
root -0.2085684950680336 18.140529248777504 2.805509733186887 5.494333063775595 -1.4079747340623507 -0.5754592299465808
lfemur 13.067402113890628 0.4496665520300705 -25.376607172990486
ltibia 28.842329411436726
lfoot 8.177697498296006 -7.995061386968179
ltoes -28.62920251489657
rfemur -50.43981098881551 0.9828524006128532 24.224070407703305
rtibia 75.93073650462532
rfoot 0.5469396795380126 -0.46262672458324605
rtoes -6.47602874601629
lowerback 15.480557388428187 -0.9304731512460023 -2.7878539738266817
upperback -1.4947236335276985 -1.576564831345964 2.1053988075270604
thorax -10.047179157436918 -0.5107270815210428 5.0710013288533125
lowerneck -21.39873537854459 -2.360050633918622 -1.6798741158024701
upperneck 13.839734476185514 -3.234844742396822 3.0349990077895366
head 7.790988290693085 -1.300162552353164 0.8944842239418642
lclavicle -1.17827643936439e-15 2.1820603353322143e-15
lhumerus -31.541451181200994 -18.911453385928176 95.72879644643173
lradius 125.40350096973727
lwrist 38.18741615780442
lhand -24.07850318001193 1.9948788560768889
lfingers 7.12502
lthumb 2.401397581443627 31.91996784573934
rclavicle -1.17827643936439e-15 2.1820603353322143e-15
rhumerus -64.60170848294545 7.066736927266872 -98.75807616130025
rradius 110.2474236089855
rwrist -11.70471733201733
rhand -15.536796397192767 40.308338655672465
rfingers 7.12502
rthumb 10.645819731203364 10.10127737003045
31
root -0.1630809880693758 18.34003843950779 4.936595862147253 5.54071500334976 -2.4862976685184126 -0.6637373829859936
lfemur 16.45867245907025 -0.5418497378732848 -25.860904323019334
ltibia 25.796162038241025
lfoot 16.062791150098786 -10.205830867327201
ltoes -24.552615268133664
rfemur -49.54800803837578 2.1923928708406644 24.325772407411645
rtibia 65.04948503068502
rfoot 1.329925018176998 1.1288266177795467
rtoes -9.712648322926386
lowerback 15.06701172556643 -1.0303815500677764 -2.500152796701313
upperback -1.6822130425045079 -1.6448106807709553 2.2524004857361124
thorax -9.967452937179969 -0.5540585044446137 5.014871934343584
lowerneck -21.26204421290536 -2.235108958120639 -1.742799851002512
upperneck 14.237703742416237 -3.0163872405262397 2.843964005247106
head 7.8707502708676556 -1.2194437497681425 0.8534149681719561
lclavicle -1.2110153848715223e-15 2.1591865815047038e-15
lhumerus -31.771195136740555 -19.3978651638013 95.12230448661441
lradius 125.71109478395468
lwrist 37.061262539795976
lhand -23.711413825671734 1.7375649546234073
lfingers 7.12502
lthumb 2.7559485153652865 31.665073869090115
rclavicle -1.2110153848715223e-15 2.1591865815047038e-15
rhumerus -66.08181875853181 5.8852018851614325 -97.88331909668199
rradius 110.89842271510832
rwrist -10.871814554200713
rhand -15.917699614039408 40.31166609572983
rfingers 7.12502
rthumb 10.278276348975119 10.092433514399357
